<svg xmlns="http://www.w3.org/2000/svg" viewBox="0 0 181.66 301.97">
  <defs>
    <style>.cls-1{fill:#5b5b5b;}.cls-1,.cls-2,.cls-3,.cls-4{fill-rule:evenodd;}.cls-2{fill:#b2b3b3;}.cls-3{fill:#696968;}.cls-4{fill:#68c5f0;}</style>
  </defs>
  <g id="_1" data-name="???? 1">
    <polygon class="cls-1" points="11.78 149.6 96.72 109.33 181.66 149.6 96.72 201.41 11.78 149.6"/>
    <polygon class="cls-2" points="96.72 8.12 11.78 149.6 96.72 109.33 181.66 149.6 96.72 8.12"/>
    <polygon class="cls-2" points="11.78 167.16 96.72 218.97 181.66 167.16 96.72 288.85 11.78 167.16"/>
    <polygon class="cls-3" points="96.72 150.98 96.72 0 81.73 0 81.73 24.13 62.67 24.13 62.67 52.32 45.65 52.32 45.65 80.51 28.63 80.51 28.63 108.7 11.61 108.7 11.61 136.89 0 136.89 0 165.08 11.61 165.08 11.61 193.27 28.63 193.27 28.63 221.46 45.65 221.46 45.65 249.65 62.67 249.65 62.67 277.84 81.05 277.84 81.73 301.97 111.71 301.97 111.71 277.84 130.76 277.84 130.76 249.65 147.79 249.65 147.79 221.46 164.81 221.46 164.81 193.27 96.72 150.98"/>
    <polygon class="cls-4" points="81.73 0 81.73 160.56 164.81 210.75 164.81 193.27 96.72 150.98 96.72 0 81.73 0"/>
  </g>
</svg>
