<svg xmlns="http://www.w3.org/2000/svg" viewBox="0 0 31.35 25.26"><defs><style>.cls-2{fill-rule:evenodd;fill:#683613}</style></defs><g id="Слой_2" data-name="Слой 2"><g id="_1" data-name="???? 1"><path fill-rule="evenodd" fill="#f6851b" d="M7.45 22.49l2.76 2.46h4.99l2.91-2.31 4.23 1.38 2.61-.61 1.38-4.61-2.15-5.67 1.92-6.45-.08-3.92L25.18 0l-5.07 1.46-3.45 1.99H8.52L5.07 1.61.77.54.15 5.91l1.38 6.52L0 17.27l.84 5.6 2.46 1.38 4.15-1.76z"/><path class="cls-2" d="M1.53 12.43l4.3-1.53L8.6 7.06.77.54.15 5.91l1.38 6.52zM24.18 13.13l-4.53-1.62-2.46-3.99L25.18 0l.84 2.76.08 3.92-1.92 6.45z"/><path fill="#bad405" fill-rule="evenodd" d="M16.8 17.79l3.4-2.4 3.12 4.46 4.46-7.07 3.57 2.28-6.19 9.53-3.45.67-4.91-7.47z"/></g></g></svg>