<svg xmlns="http://www.w3.org/2000/svg" viewBox="0 0 28.84 25.12"><defs><style>.cls-2{fill-rule:evenodd;fill:#9d9e9e}</style></defs><g id="Слой_2" data-name="Слой 2"><g id="_1" data-name="???? 1"><path fill-rule="evenodd" fill="#c5c6c6" d="M7.41 22.4l2.76 2.44h4.96l2.91-2.29 4.2 1.37 2.6-.61 1.38-4.58-2.14-5.66 1.91-6.42-.08-3.9L25.07 0l-5.04 1.45-3.44 1.99H8.48L5.04 1.6.77.54.15 5.89l1.38 6.49L0 17.2l.84 5.58 2.45 1.37 4.12-1.75z"/><path class="cls-2" d="M1.53 12.38l4.28-1.53 2.75-3.82L.77.54.15 5.89l1.38 6.49zM24.08 13.07l-4.51-1.61-2.45-3.97L25.07 0l.84 2.75.08 3.9-1.91 6.42z"/><path fill="#898989" fill-rule="evenodd" d="M19.68 15.24l3.5 2.83 3.49-2.94 1.95 2.28-3.05 2.49 3.27 2.72-1.94 2.39-3.83-2.94-3.61 3.05-1.94-2.39 3.11-2.66-2.89-2.5 1.94-2.33z"/></g></g></svg>