<svg xmlns="http://www.w3.org/2000/svg" width="36" height="52" version="1.1" viewBox="0 0 36 52">
  <g>
    <path fill="#c6c6c6" fill-opacity="1" d="M22.49988,42v0v0v0v5c0,2.5 -2.5,5 -5,5h-17v0v0v0v-10v0v0v0z"/>
    <path fill="#c6c6c6" fill-opacity="1" d="M12.5,42.39748v0v-32v0h10v0v32v0z"/>
    <path fill="#c6c6c6" fill-opacity="1" d="M17.5,-0.00562v0l9,11v0h-18v0z"/>
    <path fill="#c6c6c6" fill-opacity="1" d="M17.5,-0.00562v0l9,11v0h-18v0z"/>
    <path fill="#c6c6c6" fill-opacity="1" d="M12.5,42.39748v0v-32v0h10v0v32v0z"/>
    <path fill="#c6c6c6" fill-opacity="1" d="M22.49988,42v0v0v0v5c0,2.5 -2.5,5 -5,5h-17v0v0v0v-10v0v0v0z"/>
  </g>
</svg>
